Coordinates
version=1
nRows=19
nColumns=24
inDegrees=yes

Units are S.I. units (second, meters, Newtons, ...)
Angles are in degrees.

endheader
time	pelvis_tilt	pelvis_list	pelvis_rotation	pelvis_tx	pelvis_ty	pelvis_tz	hip_flexion_r	hip_adduction_r	hip_rotation_r	knee_angle_r	ankle_angle_r	subtalar_angle_r	mtp_angle_r	hip_flexion_l	hip_adduction_l	hip_rotation_l	knee_angle_l	ankle_angle_l	subtalar_angle_l	mtp_angle_l	lumbar_extension	lumbar_bending	lumbar_rotation
      0.69600000	     -2.72314862	     -3.86306517	      2.79207994	     -0.42863226	      0.90469012	      0.33892730	     14.63904242	      9.72009976	     -1.85264372	    -24.13530190	     11.84877659	     -2.05496978	      2.57407161	     17.98063722	     -7.49800479	     -5.92001621	    -75.73606371	     -4.03763410	    -11.72786099	      0.67031587	     -4.81861895	      5.00094146	      0.66677608
      0.70016667	     -2.79606529	     -3.68421580	      2.72943001	     -0.42332724	      0.90578546	      0.33889959	     14.07036393	      9.55418953	     -1.70251873	    -23.63477516	     11.91882267	     -1.95756549	      2.57889328	     18.76088393	     -7.21285279	     -5.97882934	    -75.68193916	     -3.78296689	    -11.78981639	      0.64355983	     -4.73086774	      4.81404810	      0.76153754
      0.70433333	     -2.90576603	     -3.47562093	      2.62868023	     -0.41807703	      0.90679580	      0.33889594	     13.57112601	      9.35561352	     -1.52867293	    -23.19176929	     11.93691517	     -1.86897581	      2.58720827	     19.55476649	     -6.88792323	     -6.06492673	    -75.55046384	     -3.46778876	    -11.81979582	      0.57657720	     -4.64157117	      4.59765551	      1.01265575
      0.70850000	     -2.97594976	     -3.27664671	      2.52102824	     -0.41277446	      0.90785598	      0.33890573	     13.00589817	      9.17100899	     -1.34349663	    -22.70326747	     11.97395429	     -1.76998885	      2.59460015	     20.27761782	     -6.58409381	     -6.16634620	    -75.33316636	     -3.19041840	    -11.81725999	      0.52570496	     -4.57285710	      4.39360791	      1.20539594
      0.71266667	     -3.03452026	     -3.07985188	      2.39997191	     -0.40746519	      0.90890588	      0.33894506	     12.42311913	      8.99274131	     -1.14193602	    -22.20245767	     12.02783068	     -1.69681037	      2.60634797	     20.96498803	     -6.29368261	     -6.28599323	    -75.04263394	     -2.91979268	    -11.75661549	      0.44880909	     -4.52338541	      4.17560242	      1.49167630
      0.71683333	     -3.09501190	     -2.88478455	      2.27672958	     -0.40213335	      0.90993865	      0.33895536	     11.83734577	      8.80657208	     -0.96896676	    -21.68602402	     12.03758752	     -1.59252938	      2.60892495	     21.62985338	     -5.99967034	     -6.40608046	    -74.67121522	     -2.64942301	    -11.73533685	      0.43426769	     -4.44149428	      3.98128532	      1.58001972
      0.72100000	     -3.12441366	     -2.65875596	      2.10632136	     -0.39683149	      0.91099941	      0.33901985	     11.23157165	      8.59495332	     -0.73591256	    -21.19850267	     12.01414686	     -1.51325485	      2.61269268	     22.22037811	     -5.68360327	     -6.57056809	    -74.21019728	     -2.33317208	    -11.61437219	      0.41197532	     -4.45261555	      3.74767155	      1.80276947
      0.72516667	     -3.13794910	     -2.45237994	      1.93676688	     -0.39150425	      0.91204458	      0.33909969	     10.59306073	      8.40350661	     -0.50539335	    -20.67298385	     12.00327718	     -1.44320526	      2.61707560	     22.77728292	     -5.40212247	     -6.74122410	    -73.68916933	     -2.03333111	    -11.49110996	      0.39399359	     -4.45138128	      3.53198600	      2.05140232
      0.72933333	     -3.12343386	     -2.26736492	      1.76150729	     -0.38616509	      0.91309157	      0.33921017	      9.91101607	      8.23815325	     -0.26086706	    -20.11447568	     12.00724952	     -1.40481052	      2.62501861	     23.28415243	     -5.15839435	     -6.91879654	    -73.10481689	     -1.73504689	    -11.33141173	      0.37193335	     -4.47899961	      3.34095414	      2.38881560
      0.73350000	     -3.13196708	     -2.05502203	      1.56226296	     -0.38085843	      0.91407515	      0.33931423	      9.27805219	      8.03234299	     -0.02864035	    -19.59805737	     11.94989382	     -1.32472678	      2.62756804	     23.78821338	     -4.88209182	     -7.11923581	    -72.44163242	     -1.43077843	    -11.20188303	      0.36937576	     -4.48551401	      3.11931225	      2.56311678
      0.73766667	     -3.08732199	     -1.87621776	      1.36634030	     -0.37552725	      0.91508941	      0.33945827	      8.56231289	      7.86844715	      0.22063170	    -19.02393648	     11.92619214	     -1.29261378	      2.63426660	     24.21740181	     -4.66138621	     -7.31906614	    -71.72380873	     -1.12024418	    -11.01912698	      0.37277426	     -4.54824419	      2.92980650	      2.87140945
      0.74183333	     -3.05161878	     -1.68547411	      1.15453188	     -0.37022110	      0.91604943	      0.33960552	      7.87045380	      7.68331870	      0.46601467	    -18.47201602	     11.87219831	     -1.24659876	      2.63968495	     24.63277042	     -4.43134385	     -7.53566819	    -70.93757287	     -0.80869722	    -10.85198388	      0.38617166	     -4.60227848	      2.72718875	      3.11533508
      0.74600000	     -3.00360184	     -1.50683056	      0.93791363	     -0.36493178	      0.91697943	      0.33976352	      7.16535920	      7.50753320	      0.71194954	    -17.90953030	     11.80450622	     -1.19750159	      2.64571998	     25.01745603	     -4.22062279	     -7.75409526	    -70.09233686	     -0.49422741	    -10.67808055	      0.40865523	     -4.67267728	      2.53863844	      3.36190436
      0.75016667	     -2.94731734	     -1.33775452	      0.71346130	     -0.35966108	      0.91786955	      0.33993329	      6.45288744	      7.33788486	      0.96110772	    -17.34111989	     11.72150063	     -1.15502132	      2.65326903	     25.37554202	     -4.02627783	     -7.97723572	    -69.19210259	     -0.17894687	    -10.50370586	      0.44112084	     -4.75814294	      2.36017542	      3.62137144
      0.75433333	     -2.88214057	     -1.17163116	      0.48549330	     -0.35439856	      0.91872103	      0.34011475	      5.73441301	      7.16530704	      1.19905818	    -16.77368874	     11.64159099	     -1.11547291	      2.66162826	     25.70348312	     -3.84234493	     -8.20634316	    -68.23055425	      0.12851238	    -10.33660945	      0.47978640	     -4.84404858	      2.18174386	      3.85979224
      0.75850000	     -2.81823235	     -1.02209024	      0.25567839	     -0.34916710	      0.91950936	      0.34029906	      5.02034817	      7.00598590	      1.44237317	    -16.20129007	     11.53271156	     -1.07271223	      2.67363382	     26.02009316	     -3.67830839	     -8.42995021	    -67.22162426	      0.44217373	    -10.17580684	      0.53088048	     -4.94140399	      2.02265663	      4.11317460
      0.76266667	     -2.73899019	     -0.87044970	      0.02593003	     -0.34393883	      0.92026630	      0.34047039	      4.29619015	      6.83507793	      1.65006262	    -15.63818752	     11.46031045	     -1.02080836	      2.68522715	     26.29812356	     -3.51588970	     -8.66336214	    -66.14973548	      0.73253050	    -10.02435119	      0.57590824	     -5.04445346	      1.85787987	      4.32835935
      0.76683333	     -2.66381675	     -0.73577703	     -0.20533520	     -0.33873775	      0.92095497	      0.34065175	      3.57947012	      6.67807956	      1.86539872	    -15.07108166	     11.36461742	     -0.96568686	      2.69907676	     26.56705865	     -3.37407198	     -8.88699149	    -65.03179789	      1.02263963	     -9.88247319	      0.62471762	     -5.15051835	      1.71120474	      4.55879196
      0.77100000	     -2.58602592	     -0.61427951	     -0.43405245	     -0.33356187	      0.92158319	      0.34083275	      2.86261411	      6.52971006	      2.07161090	    -14.50121892	     11.26104498	     -0.90424694	      2.71715502	     26.81856376	     -3.24666201	     -9.10204405	    -63.86490995	      1.30415116	     -9.74789968	      0.67947318	     -5.26448986	      1.58053094	      4.79174664
